<?xml version="1.0" encoding="utf-8"?>
<!-- Generator: Adobe Illustrator 25.0.0, SVG Export Plug-In . SVG Version: 6.00 Build 0)  -->
<svg version="1.1" id="Layer_1" xmlns="http://www.w3.org/2000/svg" xmlns:xlink="http://www.w3.org/1999/xlink" x="0px" y="0px"
	 viewBox="0 0 300 200" style="enable-background:new 0 0 300 200;" xml:space="preserve">
<style type="text/css">
	<!-- .st0{fill:="url(#paint1_linear_4733_2085)";} -->
	.st1{fill:url(#SVGID_1_);}
</style>
<path class="st0" fill="url(#paint1_linear_4733_2085)" d="M81.5,103.4C81.5,103.4,81.6,103.4,81.5,103.4C81.6,103.4,81.6,103.5,81.5,103.4c0,0.4,0,0.7,0,1
	c0,0.1,0,0.2,0,0.3c0,0.8,0,1.6,0.1,2.5c0,0.1,0,0.1,0,0.2c0.2,1.6,0.6,3.3,1.3,4.8c0,0.1,0,0.1,0.1,0.2c0.5,1.1,1,2.1,1.7,3
	c0,0,0.1,0.1,0.1,0.1c0.2,0.3,0.4,0.6,0.6,0.8c0.1,0.1,0.1,0.2,0.2,0.2c0.2,0.3,0.4,0.5,0.6,0.7c0.1,0.1,0.1,0.2,0.2,0.2
	c0.2,0.2,0.3,0.4,0.5,0.6c0,0,0.1,0.1,0.1,0.1c0.1,0.1,0.1,0.1,0.2,0.2c0.1,0.1,0.2,0.2,0.3,0.3c0.1,0.1,0.1,0.1,0.2,0.2
	c0,0,0.1,0.1,0.1,0.1c0.2,0.2,0.3,0.4,0.5,0.5c0.1,0.1,0.2,0.3,0.4,0.4c0.1,0.1,0.2,0.3,0.4,0.4c0,0,0,0,0.1,0.1c0,0,0,0.1,0,0.1
	c0,0,0.1,0,0.1,0c0.1,0.1,0.1,0.1,0.1,0.1c0,0,0,0.1,0,0.1c0,0,0.1,0,0.1,0c0,0,0,0.1,0,0.1c0,0,0.1,0,0.1,0c0,0,0,0.1,0,0.1
	c0,0,0.1,0,0.1,0c0,0,0,0.1,0,0.1c0,0,0,0,0.1,0c0.1,0.1,0.1,0.1,0.1,0.2c0,0,0.1,0,0.1,0c0.1,0.1,0.1,0.1,0.1,0.1c0,0,0,0.1,0,0.1
	c0,0,0.1,0,0.1,0c0.1,0.1,0.1,0.1,0.1,0.1c0.1,0.1,0.2,0.3,0.3,0.4c1.3,1.6,2.3,3.6,2.3,5.9c0,0.4-0.1,0.7-0.1,1c0,0,0,0.1,0,0.1
	c-0.1,0.6-0.3,1.1-0.6,1.6c-0.1,0.1-0.1,0.2-0.2,0.3c-0.1,0.2-0.2,0.4-0.4,0.6c0,0-0.1,0-0.1,0c0,0,0,0,0,0.1
	c-0.1,0.2-0.2,0.3-0.3,0.5c0,0-0.1,0.1-0.1,0.1c-0.1,0.1-0.2,0.2-0.2,0.3c0,0,0,0.1-0.1,0.1c-0.4,0.5-0.9,0.8-1.4,1.1
	c0,0-0.1,0-0.1,0.1c-1,0.6-2.2,0.9-3.4,0.6c0,0-0.1,0-0.1,0c-0.8-0.2-1.5-0.7-2-1.4c0,0-0.1-0.1-0.1-0.1c-0.5-0.6-0.9-1.3-1.3-2
	c0,0,0,0,0-0.1c-0.7-1.4-1.1-3-1.5-4.6c0,0,0-0.1,0-0.1c-0.1-0.6-0.2-1.2-0.3-1.7c0-0.1,0-0.3-0.1-0.4c-0.1-0.3-0.1-0.6-0.1-1
	c0-0.1,0-0.3-0.1-0.4c-0.1-0.5-0.1-1.1-0.2-1.6c0,0,0,0,0-0.1c-0.1-0.8-0.1-1.7-0.2-2.5c0,0,0-0.1,0-0.1c0-0.7,0-1.3,0-2
	c0-0.1,0-0.2,0-0.3c0-1.3,0-2.7,0.1-4c0,0,0-0.1,0-0.1c0.1-1.2,0.2-2.3,0.4-3.5c0-0.1,0-0.3,0.1-0.4C81,104.1,81,104.1,81.5,103.4z"
	/>
<path class="st0" fill="url(#paint1_linear_4733_2085)" d="M61.5,90.8c0.1,0.1,0.1,0.1,0.2,0.2c0.1,0.1,0.1,0.1,0.2,0.2c0.3,0.3,0.6,0.5,0.8,0.8c0.1,0.1,0.1,0.1,0.2,0.1
	c0,0,0,0.1,0,0.1c0,0,0,0,0.1,0c0.1,0.1,0.2,0.1,0.2,0.2c0.1,0.1,0.2,0.2,0.3,0.2c0,0,0,0.1,0,0.1c0,0,0,0,0.1,0
	c0.1,0.1,0.1,0.1,0.2,0.2c0,0,0,0.1,0.1,0.1c0,0,0,0.1,0.1,0.1c0,0,0,0.1,0.1,0.1c0.1,0.1,0.2,0.2,0.2,0.3c0.1,0.1,0.2,0.2,0.2,0.3
	c0,0.1,0.1,0.1,0.1,0.2c0.1,0.1,0.1,0.1,0.3,0.2c0,0,0,0.1,0,0.1c0,0,0.1,0,0.1,0c0.1,0.1,0.1,0.1,0.1,0.1c0.1,0.1,0.2,0.2,0.3,0.3
	c0,0,0,0.1,0,0.1c0,0,0.1,0,0.1,0c0.1,0.1,0.1,0.1,0.1,0.1c0,0,0,0.1,0,0.1c0,0,0.1,0,0.1,0c0,0,0,0.1,0,0.1c0,0,0.1,0,0.1,0
	c0,0,0,0.1,0,0.1c0,0,0.1,0,0.1,0c0,0,0,0.1,0,0.1c0,0,0,0,0.1,0c0.1,0.1,0.2,0.2,0.3,0.3c0.1,0.1,0.1,0.1,0.1,0.1
	c0,0,0.1,0.1,0.1,0.1c0.1,0.1,0.1,0.2,0.2,0.2c0,0,0.1,0.1,0.1,0.1c0.1,0.1,0.1,0.1,0.2,0.1c0,0,0,0.1,0,0.1c0,0,0.1,0,0.1,0
	c0,0,0,0.1,0,0.1c0,0,0,0,0.1,0c0.1,0.1,0.1,0.1,0.2,0.2c0.1,0.1,0.2,0.3,0.4,0.4c0.1,0.1,0.2,0.2,0.3,0.3c0.3,0.3,0.5,0.6,0.8,0.8
	c0,0,0,0,0.1,0.1c0,0,0,0.1,0,0.1c0,0,0,0,0.1,0c0.1,0.1,0.2,0.1,0.3,0.2c0.2,0.2,0.4,0.3,0.6,0.5c0,0,0,0,0.1,0.1c0,0,0,0.1,0,0.1
	c0,0,0.1,0,0.1,0c0.1,0.1,0.2,0.2,0.4,0.3c0.2,0.2,0.4,0.3,0.6,0.5c0.1,0.1,0.2,0.1,0.3,0.2c0.4,0.3,0.9,0.6,1.3,0.9
	c0.1,0,0.1,0.1,0.2,0.1c0.4,0.2,0.7,0.4,1.1,0.6c0.1,0,0.1,0,0.1,0.1c0.2,0.1,0.5,0.2,0.7,0.3c0.1,0,0.2,0.1,0.3,0.1
	c0.2,0.1,0.4,0.2,0.7,0.2c0,0,0.1,0,0.1,0c0.5,0.2,1,0.3,1.5,0.4c0.1,0,0.2,0,0.2,0c0.6,0.1,1.3,0.1,2,0.1c0.1,0,0.1,0,0.2,0
	c0.2,0,0.4,0,0.5,0c-0.1,0.2-0.1,0.2-0.2,0.2c-0.1,0-0.1,0-0.2,0.1c0,0-0.1,0-0.1,0c-0.1,0-0.2,0.1-0.3,0.1c0,0,0,0-0.1,0
	c-0.8,0.3-1.7,0.4-2.6,0.5c0,0-0.1,0-0.1,0c-0.5,0.1-1.1,0.1-1.6,0.1c0,0-0.1,0-0.1,0c-3.5,0.1-3.5,0.1-4.5-0.2c-0.1,0-0.2,0-0.2,0
	c-0.9-0.1-1.7-0.2-2.6-0.4c0,0-0.1,0-0.1,0c-0.3-0.1-0.5-0.1-0.8-0.2c-0.1,0-0.3-0.1-0.4-0.1c-0.7-0.2-1.5-0.4-2.2-0.6
	c-0.1,0-0.2-0.1-0.3-0.1c-0.5-0.2-1-0.3-1.4-0.5c-0.1-0.1-0.3-0.1-0.4-0.2c-0.4-0.2-0.7-0.3-1.1-0.5c-0.1,0-0.2-0.1-0.3-0.1
	c-1.2-0.6-2.4-1.5-3.4-2.5c0,0-0.1-0.1-0.1-0.1c-0.4-0.5-0.8-1-1.1-1.5c0,0,0,0,0-0.1c-0.6-1.1-0.7-2.6-0.5-3.9c0,0,0-0.1,0-0.1
	c0,0,0-0.1,0-0.1c0.1-0.5,0.3-0.9,0.6-1.3c0,0,0.1-0.1,0.1-0.1c0.1-0.1,0.2-0.3,0.3-0.4c0,0,0.1-0.1,0.1-0.1c0,0,0-0.1,0.1-0.1
	c0,0,0.1,0,0.1,0c0,0,0-0.1,0-0.1c0-0.1,0-0.1,0.2-0.1c0-0.1,0-0.1,0-0.1c0.1-0.1,0.1-0.1,0.2-0.2c0,0,0,0,0.1-0.1
	C58.4,88.9,60.2,89.6,61.5,90.8z"/>
<path class="st0" fill="url(#paint1_linear_4733_2085)" d="M102.1,96.2c0.7,0,1.4,0.2,2,0.7c0.2,0.2,0.3,0.4,0.4,0.6c0,0,0,0,0,0.1c0.1,0.2,0.2,0.4,0.3,0.7c0,0,0,0,0,0.1
	c0.2,0.4,0.1,0.9,0.1,1.4c0,0,0,0.1,0,0.1c0,0.5,0,0.9-0.1,1.4c0,0.1,0,0.1,0,0.1c-0.2,1-0.9,2.1-1.6,2.7c0,0-0.1,0-0.1,0
	c0,0,0,0.1,0,0.1c-0.1,0.1-0.2,0.1-0.3,0.2c0,0-0.1,0-0.1,0.1c-0.1,0-0.1,0.1-0.2,0.1c-0.1,0-0.1,0.1-0.2,0.1
	c-0.8,0.6-1.8,1-2.8,1.2c-0.1,0-0.2,0-0.2,0.1c-0.3,0.1-0.6,0.2-1,0.2c-0.1,0-0.1,0-0.2,0c-1,0.2-2.1,0.2-3.2,0.2
	c-0.1,0-0.2,0-0.3,0c-0.9,0-1.8,0-2.7-0.1c0,0-0.1,0-0.1,0c-1.7-0.2-3.4-0.5-5-1.3c-0.1,0-0.2-0.1-0.3-0.1c-0.7-0.3-1.3-0.7-1.9-1.2
	c0.1-0.1,0.1-0.1,0.2-0.1c0,0,0.1,0,0.1,0c2,0.5,4.3,0.1,6.1-0.9c0.1-0.1,0.2-0.1,0.4-0.2c0.3-0.2,0.6-0.3,0.9-0.5
	c0.1-0.1,0.3-0.2,0.4-0.2c0.3-0.2,0.5-0.3,0.8-0.5c0,0,0.1,0,0.1-0.1c0.4-0.3,0.8-0.6,1.2-0.9c0.1-0.1,0.2-0.2,0.3-0.2
	c0.2-0.2,0.4-0.3,0.6-0.5c0.3-0.2,0.5-0.4,0.8-0.6c0,0,0.1-0.1,0.1-0.1c0.4-0.3,0.8-0.6,1.2-0.9c0.1-0.1,0.2-0.1,0.2-0.2
	c0.3-0.2,0.6-0.4,0.9-0.6c0,0,0.1-0.1,0.1-0.1C100.3,96.6,101.1,96.2,102.1,96.2z"/>
<path class="st0" fill="url(#paint2_linear_4733_2085)" d="M81.3,92.7c1.1,0,2,0.4,2.9,1.3c0.2,0.2,0.2,0.2,0.2,0.4c0,0,0.1,0,0.1,0c0.1,0.1,0.1,0.2,0.2,0.3
	c0,0,0,0.1,0.1,0.1c0.6,1.1,0.8,2.2,0.8,3.5c0,0.1,0,0.1,0,0.1c0,0.7-0.2,1.3-0.5,1.9c0,0,0,0.1,0,0.1c-0.1,0.3-0.3,0.5-0.4,0.7
	c0,0,0,0.1-0.1,0.1c0,0,0,0-0.1,0.1c0,0-0.1,0-0.1,0c0,0,0,0.1,0,0.1c0,0-0.1,0-0.1,0c0,0,0,0.1,0,0.1c0,0-0.1,0-0.1,0
	c0,0,0,0.1,0,0.1c-0.1,0.1-0.2,0.2-0.3,0.2c0,0-0.1,0-0.1,0.1c-0.8,0.6-1.6,0.7-2.5,0.5c-0.2,0-0.3-0.1-0.5-0.2c0,0,0,0-0.1,0
	c-0.4-0.2-0.7-0.4-1-0.7c0,0-0.1,0-0.1-0.1c0,0,0,0-0.1-0.1c0,0,0-0.1,0-0.1c0,0-0.1,0-0.1,0c0,0,0-0.1,0-0.1c0,0-0.1,0-0.1,0
	c-0.1-0.1-0.1-0.2-0.2-0.3c0,0,0-0.1-0.1-0.1c-0.8-1.2-1.1-2.6-1-4.1c0-0.1,0-0.3,0.1-0.4c0-0.1,0-0.1,0-0.2
	c0.1-0.7,0.5-1.6,0.9-2.1c0,0,0.1,0,0.1,0c0,0,0-0.1,0-0.1c0.3-0.5,1-0.9,1.5-1C81,92.7,81.1,92.7,81.3,92.7z"/>
<path class="st0" fill="url(#paint2_linear_4733_2085)" d="M90.1,97.2c0.5,0.4,0.8,0.8,1,1.5c0.1,0.5,0,0.9-0.2,1.3c-0.2,0.3-0.5,0.5-0.9,0.6c-0.6,0.1-1-0.1-1.5-0.5
	c0,0,0-0.1,0-0.1c0,0-0.1,0-0.1,0c-0.3-0.2-0.6-0.7-0.7-1.1c-0.1-0.5-0.1-0.9,0.1-1.3c0.1-0.1,0.1-0.2,0.2-0.3c0,0,0.1,0,0.1,0
	c0,0,0-0.1,0-0.1C88.6,96.6,89.5,96.8,90.1,97.2z"/>
<path class="st0" fill="url(#paint2_linear_4733_2085)" d="M77.8,106.1c0.5,0.3,0.8,0.7,1,1.3c0.2,0.6,0.2,1.2-0.1,1.7c-0.2,0.3-0.4,0.6-0.7,0.7c-0.4,0-0.7,0-1-0.3
	c0,0,0-0.1,0-0.1c0,0,0,0-0.1,0c-0.4-0.2-0.5-0.8-0.7-1.2c-0.1-0.5-0.1-0.9,0.1-1.4c0,0,0-0.1,0-0.1
	C76.7,106.2,77.3,105.9,77.8,106.1z"/>
<path class="st0" fill="url(#paint2_linear_4733_2085)" d="M84.7,104.6c0.4,0.3,0.6,0.8,0.7,1.3c0,0.5-0.1,1-0.4,1.4c-0.2,0.3-0.5,0.5-0.9,0.6c-0.3,0-0.5,0-0.8-0.2
	c-0.1,0-0.1,0-0.1-0.1c-0.3-0.3-0.6-0.7-0.6-1.2c0-0.5,0-1,0.3-1.4c0-0.1,0-0.1,0.1-0.1c0,0,0.1,0,0.1,0c0,0,0-0.1,0-0.1
	c0,0,0.1,0,0.1,0c0,0,0-0.1,0-0.1C83.7,104.4,84.2,104.3,84.7,104.6z"/>
<path class="st0" fill="url(#paint2_linear_4733_2085)" d="M77,95.6c0.1,0.1,0.1,0.1,0.2,0.2c0,0,0,0.1,0,0.1c0,0,0.1,0,0.1,0c0,0.1,0.1,0.2,0.1,0.2c0,0,0,0.1,0.1,0.1
	c0.2,0.4,0.2,0.9,0.1,1.4c-0.1,0.2-0.1,0.4-0.3,0.5c0,0-0.1,0-0.1,0c0,0,0,0.1,0,0.1c-0.1,0.2-0.3,0.3-0.5,0.4
	c-0.4,0.1-0.7,0.1-1-0.2c-0.3-0.2-0.5-0.6-0.6-1C75,97,75,96.5,75.2,96.1c0,0,0-0.1,0.1-0.1C75.7,95.4,76.3,95.1,77,95.6z"/>
<path class="st0" fill="url(#paint2_linear_4733_2085)" d="M85.8,109.5c0.1,0.1,0.1,0.1,0.2,0.2c0.1,0.1,0.1,0.1,0.1,0.1c0.2,0.3,0.2,0.5,0.2,0.9c0,0.3-0.2,0.6-0.4,0.8
	c-0.2,0.1-0.3,0.2-0.5,0.2c0,0-0.1,0-0.1,0c-0.2,0-0.4-0.2-0.6-0.3c-0.2-0.3-0.2-0.7-0.2-1.1c0.1-0.3,0.3-0.5,0.5-0.7
	C85.2,109.4,85.5,109.3,85.8,109.5z"/>
<path class="st0" fill="url(#paint2_linear_4733_2085)" d="M74.4,98.7c0.2,0.2,0.3,0.3,0.3,0.6c0,0.3,0,0.4-0.2,0.6c0,0,0,0-0.1,0.1c0,0-0.1,0-0.1,0c0,0,0,0.1,0,0.1
	c-0.2,0.1-0.4,0.2-0.6,0.1c-0.2-0.1-0.3-0.2-0.4-0.5c0,0,0-0.1,0-0.1c0-0.3,0-0.5,0.1-0.7C73.7,98.6,74.1,98.5,74.4,98.7z"/>
<path class="st0" fill="url(#paint2_linear_4733_2085)" d="M86.3,100.3c0.2,0.2,0.3,0.4,0.4,0.6c0,0.3-0.1,0.5-0.3,0.7c-0.2,0.2-0.3,0.2-0.5,0.2c-0.2,0-0.4-0.2-0.5-0.3
	c-0.1-0.3-0.1-0.6,0-0.9C85.6,100.2,85.9,100.1,86.3,100.3z"/>
<g>
	
		<linearGradient id="SVGID_1_" gradientUnits="userSpaceOnUse" x1="427.9574" y1="-117.0878" x2="543.3666" y2="-117.0878" gradientTransform="matrix(1 0 0 -1 -246 -4)">
		<stop  offset="0" style="stop-color:#455EA8"/>
		<stop  offset="0.469" style="stop-color:#C78ABC"/>
		<stop  offset="1" style="stop-color:#FABD6B"/>
	</linearGradient>
<linearGradient id="paint0_linear_4733_2085" x1="-0.443246" y1="24.6492" x2="18.6351" y2="0.704675" gradientUnits="userSpaceOnUse">
<stop stop-color="#4562FF"/>
<stop offset="0.469" stop-color="#E287DF"/>
<stop offset="1" stop-color="#FFBE68"/>
</linearGradient>
<linearGradient id="paint1_linear_4733_2085" x1="21.0429" y1="6.53127" x2="32.8094" y2="26.9338" gradientUnits="userSpaceOnUse">
<stop stop-color="#4562FF"/>
<stop offset="0.469" stop-color="#E287DF"/>
<stop offset="1" stop-color="#FFBE68"/>
</linearGradient>
<linearGradient id="paint2_linear_4733_2085" x1="13.5893" y1="15.1619" x2="33.2955" y2="5.25638" gradientUnits="userSpaceOnUse">
<stop stop-color="#4562FF"/>
<stop offset="0.4046" stop-color="#E287DF"/>
<stop offset="1" stop-color="#FFBE68"/>
</linearGradient>
	<path class="st1" d="M160.6,123.1h-12.9l-2.3,6.9h-7.2l12.2-34.4h7.8l11.9,34.4h-7.3L160.6,123.1z M158.7,117.2l-4.5-13.4
		l-4.5,13.4H158.7z M195.2,112.1h-6.7c0-1-0.4-1.7-1.1-2.2c-0.7-0.4-1.9-0.7-3.6-0.7c-2.5,0-3.8,0.7-3.8,2.2c0,0.9,0.8,1.5,2.3,1.9
		l8.4,2.4c3.3,0.9,5,3,5,6.3c0,2.6-1,4.7-3,6.3c-1.9,1.5-4.6,2.2-8.2,2.2c-4.4,0-7.5-0.6-9.4-1.9c-1.9-1.2-2.8-3.2-3-5.9h6.6
		c0.2,1.1,0.6,1.8,1.3,2.1c0.7,0.4,2.1,0.5,4,0.5c3.3,0,4.9-0.8,4.9-2.4c0-0.9-0.7-1.6-2.2-2.1l-7.9-2.4c-2-0.6-3.4-1.3-4.1-2.1
		c-1-1-1.4-2.3-1.4-4c0-2.8,1.1-4.9,3.2-6.4c1.9-1.3,4.3-1.9,7.3-1.9c3.6,0,6.5,0.8,8.6,2.4C194.2,107.9,195.1,109.8,195.2,112.1z
		 M206.8,114.5l8.3-9.9h7.5l-8.7,9.6l9.3,15.8h-7.7l-6.1-11.2l-2.6,2.9v8.4h-6.6V95.6h6.6V114.5z M248.3,128.3v1.7h-7.2
		c-0.5-0.6-0.7-1.5-0.8-2.6c-1.8,2.1-4.3,3.1-7.7,3.1c-2.5,0-4.4-0.8-6-2.3c-1.2-1.2-1.8-2.9-1.8-5c0-3.2,1.3-5.5,3.8-6.8
		c1.1-0.6,3.2-1.2,6.5-1.7l5.2-1l0-1.8c0-1.7-1.3-2.5-3.8-2.5c-1.6,0-2.8,0.3-3.5,0.8c-0.6,0.5-1,1.4-1.2,2.7h-6.3
		c0.4-5.9,4-8.8,10.8-8.8c3.8,0,6.5,0.7,8.2,2c1.5,1.3,2.3,3.2,2.3,5.8v14.2C246.8,127.2,247.3,128,248.3,128.3z M240.4,117.7
		l-4.8,1.1c-1.4,0.3-2.4,0.8-3.1,1.4c-0.6,0.6-1,1.4-1,2.3c0,1.8,1.2,2.7,3.6,2.7c3.4,0,5.2-1.9,5.3-5.6L240.4,117.7z M252.8,104.6
		h6.6v4.8c0.8-3.6,3.2-5.4,7.1-5.4c0.6,0,1,0,1.3,0l0,6.5c-0.8-0.2-1.6-0.2-2.5-0.2c-2.2,0-3.7,0.4-4.5,1.2c-1,0.9-1.4,2.5-1.4,4.8
		V130h-6.6V104.6z M277.8,104.6V130h-6.6v-25.4H277.8z M274.5,95.8c0.9,0,1.6,0.3,2.2,0.9c0.6,0.6,0.9,1.3,0.9,2.2s-0.3,1.6-0.9,2.2
		c-0.6,0.6-1.3,0.9-2.2,0.9c-0.9,0-1.6-0.3-2.2-0.9c-0.6-0.6-0.9-1.3-0.9-2.2s0.3-1.6,0.9-2.2S273.6,95.8,274.5,95.8z"/>
</g>
<rect fill="url(#paint0_linear_4733_2085)" x="116.8" y="82.4" class="st0" width="6.7" height="50.2"/>
</svg>
