<?xml version="1.0" encoding="utf-8"?>
<!-- Generator: Adobe Illustrator 25.0.0, SVG Export Plug-In . SVG Version: 6.00 Build 0)  -->
<svg version="1.1" id="Layer_1" xmlns="http://www.w3.org/2000/svg" xmlns:xlink="http://www.w3.org/1999/xlink" x="0px" y="0px"
	 viewBox="0 0 300 200" style="enable-background:new 0 0 300 200;" xml:space="preserve">
<style type="text/css">
	.st0{fill:url(#SVGID_1_);}
	.st1{fill:url(#SVGID_2_);}
	.st2{fill:url(#SVGID_3_);}
	.st3{fill:url(#SVGID_4_);}
	.st4{fill:url(#SVGID_5_);}
	.st5{fill:url(#SVGID_6_);}
	.st6{fill:url(#SVGID_7_);}
	.st7{fill:url(#SVGID_8_);}
	.st8{fill:url(#SVGID_9_);}
	.st9{fill:url(#SVGID_10_);}
	.st10{fill:url(#SVGID_11_);}
	.st11{fill:url(#SVGID_12_);}
	.st12{fill:url(#SVGID_13_);}
</style>
<g>
	
		<linearGradient id="SVGID_1_" gradientUnits="userSpaceOnUse" x1="263.781" y1="-13.5409" x2="273.4368" y2="-30.2836" gradientTransform="matrix(1 0 0 -1 -246 -4)">
		<stop  offset="0" style="stop-color:#455EA8"/>
		<stop  offset="0.469" style="stop-color:#C78ABC"/>
		<stop  offset="1" style="stop-color:#FABD6B"/>
	</linearGradient>
	<path class="st0" d="M69.1,88.1C69.1,88.1,69.2,88.1,69.1,88.1C69.2,88.1,69.2,88.1,69.1,88.1c0,0.3,0,0.6,0,0.8c0,0.1,0,0.2,0,0.2
		c0,0.7,0,1.3,0.1,2c0,0.1,0,0.1,0,0.2c0.2,1.3,0.5,2.7,1.1,3.9c0,0.1,0,0.1,0.1,0.2c0.4,0.9,0.9,1.7,1.5,2.4l0.1,0.1
		c0.2,0.2,0.3,0.5,0.5,0.7c0.1,0.1,0.1,0.2,0.2,0.2c0.2,0.2,0.3,0.4,0.5,0.6c0.1,0.1,0.1,0.2,0.2,0.2c0.2,0.2,0.3,0.3,0.4,0.5
		l0.1,0.1c0.1,0.1,0.1,0.1,0.2,0.2c0.1,0.1,0.2,0.2,0.3,0.2c0.1,0.1,0.1,0.1,0.2,0.2l0.1,0.1c0.2,0.2,0.3,0.3,0.4,0.4
		c0.1,0.1,0.2,0.2,0.3,0.3c0.1,0.1,0.2,0.2,0.3,0.3c0,0,0,0,0.1,0.1v0.1h0.1c0.1,0.1,0.1,0.1,0.1,0.1v0.1h0.1v0.1H76v0.1h0.1v0.1
		c0,0,0,0,0.1,0c0.1,0.1,0.1,0.1,0.1,0.2h0.1c0.1,0.1,0.1,0.1,0.1,0.1v0.1h0.1c0.1,0.1,0.1,0.1,0.1,0.1c0.1,0.1,0.2,0.2,0.3,0.3
		c1.1,1.3,2,2.9,2,4.8c0,0.3-0.1,0.6-0.1,0.8v0.1c-0.1,0.5-0.3,0.9-0.5,1.3c-0.1,0.1-0.1,0.2-0.2,0.2c-0.1,0.2-0.2,0.3-0.3,0.5h-0.1
		c0,0,0,0,0,0.1c-0.1,0.2-0.2,0.2-0.3,0.4l-0.1,0.1c-0.1,0.1-0.2,0.2-0.2,0.2c0,0,0,0.1-0.1,0.1c-0.3,0.4-0.8,0.7-1.2,0.9
		c0,0-0.1,0-0.1,0.1c-0.9,0.5-1.9,0.7-2.9,0.5h-0.1c-0.7-0.2-1.3-0.6-1.7-1.1l-0.1-0.1c-0.4-0.5-0.8-1.1-1.1-1.6c0,0,0,0,0-0.1
		c-0.6-1.1-0.9-2.4-1.3-3.7v-0.1c-0.1-0.5-0.2-1-0.3-1.4c0-0.1,0-0.2-0.1-0.3c-0.1-0.2-0.1-0.5-0.1-0.8c0-0.1,0-0.2-0.1-0.3
		c-0.1-0.4-0.1-0.9-0.2-1.3c0,0,0,0,0-0.1c-0.1-0.7-0.1-1.4-0.2-2V100c0-0.6,0-1.1,0-1.6c0-0.1,0-0.2,0-0.2c0-1.1,0-2.2,0.1-3.3
		v-0.1c0.1-1,0.2-1.9,0.3-2.9c0-0.1,0-0.2,0.1-0.3C68.6,88.6,68.6,88.6,69.1,88.1z"/>
	
		<linearGradient id="SVGID_2_" gradientUnits="userSpaceOnUse" x1="260.0499" y1="-13.5653" x2="269.8947" y2="-30.6357" gradientTransform="matrix(1 0 0 -1 -246 -4)">
		<stop  offset="0" style="stop-color:#455EA8"/>
		<stop  offset="0.469" style="stop-color:#C78ABC"/>
		<stop  offset="1" style="stop-color:#FABD6B"/>
	</linearGradient>
	<path class="st1" d="M51.9,77.8c0.1,0.1,0.1,0.1,0.2,0.2c0.1,0.1,0.1,0.1,0.2,0.2c0.3,0.2,0.5,0.4,0.7,0.7c0.1,0.1,0.1,0.1,0.2,0.1
		v0.1c0,0,0,0,0.1,0c0.1,0.1,0.2,0.1,0.2,0.2c0.1,0.1,0.2,0.2,0.3,0.2v0.1c0,0,0,0,0.1,0c0.1,0.1,0.1,0.1,0.2,0.2c0,0,0,0.1,0.1,0.1
		c0,0,0,0.1,0.1,0.1c0,0,0,0.1,0.1,0.1c0.1,0.1,0.2,0.2,0.2,0.2c0.1,0.1,0.2,0.2,0.2,0.2c0,0.1,0.1,0.1,0.1,0.2
		c0.1,0.1,0.1,0.1,0.3,0.2v0.1h0.1c0.1,0.1,0.1,0.1,0.1,0.1c0.1,0.1,0.2,0.2,0.3,0.2v0.1h0.1c0.1,0.1,0.1,0.1,0.1,0.1v0.1h0.1v0.1
		h0.1v0.1h0.1v0.1c0,0,0,0,0.1,0c0.1,0.1,0.2,0.2,0.3,0.2c0.1,0.1,0.1,0.1,0.1,0.1l0.1,0.1c0.1,0.1,0.1,0.2,0.2,0.2l0.1,0.1
		c0.1,0.1,0.1,0.1,0.2,0.1v0.1h0.1v0.1c0,0,0,0,0.1,0c0.1,0.1,0.1,0.1,0.2,0.2s0.2,0.2,0.3,0.3c0.1,0.1,0.2,0.2,0.3,0.2
		c0.3,0.2,0.4,0.5,0.7,0.7c0,0,0,0,0.1,0.1v0.1c0,0,0,0,0.1,0c0.1,0.1,0.2,0.1,0.3,0.2c0.2,0.2,0.3,0.2,0.5,0.4c0,0,0,0,0.1,0.1v0.1
		h0.1c0.1,0.1,0.2,0.2,0.3,0.2c0.2,0.2,0.3,0.2,0.5,0.4c0.1,0.1,0.2,0.1,0.3,0.2c0.3,0.2,0.8,0.5,1.1,0.7c0.1,0,0.1,0.1,0.2,0.1
		c0.3,0.2,0.6,0.3,0.9,0.5c0.1,0,0.1,0,0.1,0.1c0.2,0.1,0.4,0.2,0.6,0.2c0.1,0,0.2,0.1,0.3,0.1c0.2,0.1,0.3,0.2,0.6,0.2h0.1
		c0.4,0.2,0.9,0.2,1.3,0.3c0.1,0,0.2,0,0.2,0c0.5,0.1,1.1,0.1,1.7,0.1c0.1,0,0.1,0,0.2,0c0.2,0,0.3,0,0.4,0C68,87.9,68,87.9,68,87.9
		c-0.1,0-0.1,0-0.2,0.1h-0.1c-0.1,0-0.2,0.1-0.3,0.1c0,0,0,0-0.1,0c-0.7,0.2-1.5,0.3-2.2,0.4H65c-0.4,0.1-0.9,0.1-1.4,0.1h-0.1
		c-3,0.1-3,0.1-3.9-0.2c-0.1,0-0.2,0-0.2,0c-0.8-0.1-1.5-0.2-2.2-0.3h-0.1C57,88,56.8,88,56.5,87.9c-0.1,0-0.3-0.1-0.3-0.1
		c-0.6-0.2-1.3-0.3-1.9-0.5c-0.1,0-0.2-0.1-0.3-0.1c-0.4-0.2-0.9-0.2-1.2-0.4c-0.1-0.1-0.3-0.1-0.3-0.2c-0.3-0.2-0.6-0.2-0.9-0.4
		c-0.1,0-0.2-0.1-0.3-0.1c-1-0.5-2.1-1.2-2.9-2l-0.1-0.1c-0.3-0.4-0.7-0.8-0.9-1.2c0,0,0,0,0-0.1c-0.5-0.9-0.6-2.1-0.4-3.2v-0.1
		v-0.1c0.1-0.4,0.3-0.7,0.5-1.1l0.1-0.1c0.1-0.1,0.2-0.2,0.3-0.3l0.1-0.1c0,0,0-0.1,0.1-0.1H48v-0.1c0-0.1,0-0.1,0.2-0.1
		c0-0.1,0-0.1,0-0.1c0.1-0.1,0.1-0.1,0.2-0.2c0,0,0,0,0.1-0.1C49.2,76.3,50.8,76.8,51.9,77.8z"/>
	
		<linearGradient id="SVGID_3_" gradientUnits="userSpaceOnUse" x1="275.7424" y1="-2.1348" x2="285.8009" y2="-19.5757" gradientTransform="matrix(1 0 0 -1 -246 -4)">
		<stop  offset="0" style="stop-color:#455EA8"/>
		<stop  offset="0.469" style="stop-color:#C78ABC"/>
		<stop  offset="1" style="stop-color:#FABD6B"/>
	</linearGradient>
	<path class="st2" d="M86.8,82.2c0.6,0,1.2,0.2,1.7,0.6c0.2,0.2,0.3,0.3,0.3,0.5c0,0,0,0,0,0.1c0.1,0.2,0.2,0.3,0.3,0.6
		c0,0,0,0,0,0.1c0.2,0.3,0.1,0.7,0.1,1.1v0.1c0,0.4,0,0.7-0.1,1.1c0,0.1,0,0.1,0,0.1c-0.2,0.8-0.8,1.7-1.4,2.2h-0.1v0.1
		c-0.1,0.1-0.2,0.1-0.3,0.2c0,0-0.1,0-0.1,0.1c-0.1,0-0.1,0.1-0.2,0.1S87,89.1,87,89.1c-0.7,0.5-1.5,0.8-2.4,1c-0.1,0-0.2,0-0.2,0.1
		c-0.3,0.1-0.5,0.2-0.9,0.2c-0.1,0-0.1,0-0.2,0c-0.9,0.2-1.8,0.2-2.8,0.2c-0.1,0-0.2,0-0.3,0c-0.8,0-1.5,0-2.3-0.1h-0.1
		c-1.5-0.2-2.9-0.4-4.3-1.1c-0.1,0-0.2-0.1-0.3-0.1c-0.6-0.2-1.1-0.6-1.6-1c0.1-0.1,0.1-0.1,0.2-0.1H72c1.7,0.4,3.7,0.1,5.2-0.7
		c0.1-0.1,0.2-0.1,0.3-0.2c0.3-0.2,0.5-0.2,0.8-0.4c0.1-0.1,0.3-0.2,0.3-0.2c0.3-0.2,0.4-0.2,0.7-0.4c0,0,0.1,0,0.1-0.1
		c0.3-0.2,0.7-0.5,1-0.7c0.1-0.1,0.2-0.2,0.3-0.2c0.2-0.2,0.3-0.2,0.5-0.4c0.3-0.2,0.4-0.3,0.7-0.5l0.1-0.1c0.3-0.2,0.7-0.5,1-0.7
		c0.1-0.1,0.2-0.1,0.2-0.2c0.3-0.2,0.5-0.3,0.8-0.5l0.1-0.1C85.2,82.5,85.9,82.2,86.8,82.2z"/>
	
		<linearGradient id="SVGID_4_" gradientUnits="userSpaceOnUse" x1="297.207" y1="-96.3975" x2="313.8964" y2="-88.0084" gradientTransform="matrix(1 0 0 -1 -246 -4)">
		<stop  offset="0" style="stop-color:#455EA8"/>
		<stop  offset="0.4046" style="stop-color:#C78ABC"/>
		<stop  offset="1" style="stop-color:#FABD6B"/>
	</linearGradient>
	<path class="st3" d="M68.9,79.3c0.9,0,1.7,0.3,2.5,1.1c0.2,0.2,0.2,0.2,0.2,0.3h0.1c0.1,0.1,0.1,0.2,0.2,0.2c0,0,0,0.1,0.1,0.1
		c0.5,0.9,0.7,1.8,0.7,2.9c0,0.1,0,0.1,0,0.1c0,0.6-0.2,1.1-0.4,1.5v0.1c-0.1,0.2-0.3,0.4-0.3,0.6c0,0,0,0.1-0.1,0.1
		c0,0,0,0-0.1,0.1h-0.1v0.1h-0.1v0.1h-0.1v0.1c-0.1,0.1-0.2,0.2-0.3,0.2c0,0-0.1,0-0.1,0.1c-0.7,0.5-1.4,0.6-2.1,0.4
		c-0.2,0-0.3-0.1-0.4-0.2c0,0,0,0-0.1,0c-0.3-0.2-0.6-0.3-0.9-0.6c0,0-0.1,0-0.1-0.1c0,0,0,0-0.1-0.1v-0.1h-0.1v-0.1h-0.1
		c-0.1-0.1-0.1-0.2-0.2-0.2c0,0,0-0.1-0.1-0.1c-0.7-1-0.9-2.1-0.9-3.3c0-0.1,0-0.2,0.1-0.3c0-0.1,0-0.1,0-0.2
		c0.1-0.6,0.4-1.3,0.8-1.7H67v-0.1c0.3-0.4,0.9-0.7,1.3-0.8C68.6,79.3,68.7,79.3,68.9,79.3z"/>
	
		<linearGradient id="SVGID_5_" gradientUnits="userSpaceOnUse" x1="298.8487" y1="-99.8048" x2="315.6469" y2="-91.361" gradientTransform="matrix(1 0 0 -1 -246 -4)">
		<stop  offset="0" style="stop-color:#455EA8"/>
		<stop  offset="0.4046" style="stop-color:#C78ABC"/>
		<stop  offset="1" style="stop-color:#FABD6B"/>
	</linearGradient>
	<path class="st4" d="M76.5,83c0.4,0.3,0.7,0.7,0.9,1.2c0.1,0.4,0,0.7-0.2,1.1c-0.2,0.2-0.4,0.4-0.8,0.5c-0.5,0.1-0.9-0.1-1.3-0.4
		v-0.1H75c-0.3-0.2-0.5-0.6-0.6-0.9c-0.1-0.4-0.1-0.7,0.1-1.1c0.1-0.1,0.1-0.2,0.2-0.2h0.1V83C75.2,82.5,75.9,82.7,76.5,83z"/>
	
		<linearGradient id="SVGID_6_" gradientUnits="userSpaceOnUse" x1="299.985" y1="-101.6483" x2="316.6478" y2="-93.2726" gradientTransform="matrix(1 0 0 -1 -246 -4)">
		<stop  offset="0" style="stop-color:#455EA8"/>
		<stop  offset="0.4046" style="stop-color:#C78ABC"/>
		<stop  offset="1" style="stop-color:#FABD6B"/>
	</linearGradient>
	<path class="st5" d="M65.9,90.3c0.4,0.2,0.7,0.6,0.9,1.1c0.2,0.5,0.2,1-0.1,1.4c-0.2,0.2-0.3,0.5-0.6,0.6c-0.3,0-0.6,0-0.9-0.2V93
		c0,0,0,0-0.1,0c-0.3-0.2-0.4-0.7-0.6-1c-0.1-0.4-0.1-0.7,0.1-1.1v-0.1C64.9,90.3,65.5,90.1,65.9,90.3z"/>
	
		<linearGradient id="SVGID_7_" gradientUnits="userSpaceOnUse" x1="300.524" y1="-102.6934" x2="317.224" y2="-94.299" gradientTransform="matrix(1 0 0 -1 -246 -4)">
		<stop  offset="0" style="stop-color:#455EA8"/>
		<stop  offset="0.4046" style="stop-color:#C78ABC"/>
		<stop  offset="1" style="stop-color:#FABD6B"/>
	</linearGradient>
	<path class="st6" d="M71.8,89c0.3,0.2,0.5,0.7,0.6,1.1c0,0.4-0.1,0.8-0.3,1.1c-0.2,0.2-0.4,0.4-0.8,0.5c-0.3,0-0.4,0-0.7-0.2
		c-0.1,0-0.1,0-0.1-0.1c-0.3-0.2-0.5-0.6-0.5-1c0-0.4,0-0.8,0.3-1.1c0-0.1,0-0.1,0.1-0.1h0.1v-0.1h0.1v-0.1
		C71,88.9,71.4,88.8,71.8,89z"/>
	
		<linearGradient id="SVGID_8_" gradientUnits="userSpaceOnUse" x1="296.0146" y1="-94.2001" x2="312.7145" y2="-85.8058" gradientTransform="matrix(1 0 0 -1 -246 -4)">
		<stop  offset="0" style="stop-color:#455EA8"/>
		<stop  offset="0.4046" style="stop-color:#C78ABC"/>
		<stop  offset="1" style="stop-color:#FABD6B"/>
	</linearGradient>
	<path class="st7" d="M65.2,81.7c0.1,0.1,0.1,0.1,0.2,0.2V82h0.1c0,0.1,0.1,0.2,0.1,0.2s0,0.1,0.1,0.1c0.2,0.3,0.2,0.7,0.1,1.1
		c-0.1,0.2-0.1,0.3-0.3,0.4h-0.1v0.1c-0.1,0.2-0.3,0.2-0.4,0.3c-0.3,0.1-0.6,0.1-0.9-0.2c-0.3-0.2-0.4-0.5-0.5-0.8
		c-0.1-0.3-0.1-0.7,0.1-1.1c0,0,0-0.1,0.1-0.1C64.1,81.5,64.6,81.3,65.2,81.7z"/>
	
		<linearGradient id="SVGID_9_" gradientUnits="userSpaceOnUse" x1="302.3109" y1="-105.9987" x2="318.9832" y2="-97.6182" gradientTransform="matrix(1 0 0 -1 -246 -4)">
		<stop  offset="0" style="stop-color:#455EA8"/>
		<stop  offset="0.4046" style="stop-color:#C78ABC"/>
		<stop  offset="1" style="stop-color:#FABD6B"/>
	</linearGradient>
	<path class="st8" d="M72.8,93c0.1,0.1,0.1,0.1,0.2,0.2c0.1,0.1,0.1,0.1,0.1,0.1c0.2,0.2,0.2,0.4,0.2,0.7c0,0.2-0.2,0.5-0.3,0.7
		c-0.2,0.1-0.3,0.2-0.4,0.2h-0.1c-0.2,0-0.3-0.2-0.5-0.2c-0.2-0.2-0.2-0.6-0.2-0.9c0.1-0.2,0.3-0.4,0.4-0.6
		C72.3,93,72.5,92.9,72.8,93z"/>
	
		<linearGradient id="SVGID_10_" gradientUnits="userSpaceOnUse" x1="296.3924" y1="-94.9476" x2="313.1014" y2="-86.5486" gradientTransform="matrix(1 0 0 -1 -246 -4)">
		<stop  offset="0" style="stop-color:#455EA8"/>
		<stop  offset="0.4046" style="stop-color:#C78ABC"/>
		<stop  offset="1" style="stop-color:#FABD6B"/>
	</linearGradient>
	<path class="st9" d="M63,84.2c0.2,0.2,0.3,0.2,0.3,0.5c0,0.2,0,0.3-0.2,0.5c0,0,0,0-0.1,0.1h-0.1v0.1c-0.2,0.1-0.3,0.2-0.5,0.1
		s-0.3-0.2-0.3-0.4V85c0-0.2,0-0.4,0.1-0.6C62.4,84.2,62.7,84.1,63,84.2z"/>
	
		<linearGradient id="SVGID_11_" gradientUnits="userSpaceOnUse" x1="299.0531" y1="-100.0895" x2="315.8254" y2="-91.6587" gradientTransform="matrix(1 0 0 -1 -246 -4)">
		<stop  offset="0" style="stop-color:#455EA8"/>
		<stop  offset="0.4046" style="stop-color:#C78ABC"/>
		<stop  offset="1" style="stop-color:#FABD6B"/>
	</linearGradient>
	<path class="st10" d="M73.2,85.5c0.2,0.2,0.3,0.3,0.3,0.5c0,0.2-0.1,0.4-0.3,0.6s-0.3,0.2-0.4,0.2s-0.3-0.2-0.4-0.2
		c-0.1-0.2-0.1-0.5,0-0.7C72.6,85.5,72.9,85.4,73.2,85.5z"/>
	<g>
		
			<linearGradient id="SVGID_12_" gradientUnits="userSpaceOnUse" x1="654.3564" y1="505.7475" x2="769.7656" y2="505.7475" gradientTransform="matrix(1 0 0 1 -492 -410)">
			<stop  offset="0" style="stop-color:#465FA9"/>
			<stop  offset="0.469" style="stop-color:#C78ABC"/>
			<stop  offset="1" style="stop-color:#FABD6B"/>
		</linearGradient>
		<path class="st11" d="M141,105.8h-12.9l-2.3,6.9h-7.2l12.2-34.4h7.8l11.9,34.4h-7.3L141,105.8z M139.1,99.9l-4.5-13.4l-4.5,13.4
			H139.1z M175.6,94.8h-6.7c0-1-0.4-1.7-1.1-2.2c-0.7-0.4-1.9-0.7-3.6-0.7c-2.5,0-3.8,0.7-3.8,2.2c0,0.9,0.8,1.5,2.3,1.9l8.4,2.4
			c3.3,0.9,5,3,5,6.3c0,2.6-1,4.7-3,6.3c-1.9,1.5-4.6,2.2-8.2,2.2c-4.4,0-7.5-0.6-9.4-1.9c-1.9-1.2-2.8-3.2-3-5.9h6.6
			c0.2,1.1,0.6,1.8,1.3,2.1c0.7,0.4,2.1,0.5,4,0.5c3.3,0,4.9-0.8,4.9-2.4c0-0.9-0.7-1.6-2.2-2.1l-7.9-2.4c-2-0.6-3.4-1.3-4.1-2.1
			c-1-1-1.4-2.3-1.4-4c0-2.8,1.1-4.9,3.2-6.4c1.9-1.3,4.3-1.9,7.3-1.9c3.6,0,6.5,0.8,8.6,2.4C174.6,90.6,175.5,92.5,175.6,94.8z
			 M187.2,97.2l8.3-9.9h7.5l-8.7,9.6l9.3,15.8h-7.7l-6.1-11.2l-2.6,2.9v8.4h-6.6V78.3h6.6V97.2z M228.7,111v1.7h-7.2
			c-0.5-0.6-0.7-1.5-0.8-2.6c-1.8,2.1-4.3,3.1-7.7,3.1c-2.5,0-4.4-0.8-6-2.3c-1.2-1.2-1.8-2.9-1.8-5c0-3.2,1.3-5.5,3.8-6.8
			c1.1-0.6,3.2-1.2,6.5-1.7l5.2-1v-1.8c0-1.7-1.3-2.5-3.8-2.5c-1.6,0-2.8,0.3-3.5,0.8c-0.6,0.5-1,1.4-1.2,2.7h-6.3
			c0.4-5.9,4-8.8,10.8-8.8c3.8,0,6.5,0.7,8.2,2c1.5,1.3,2.3,3.2,2.3,5.8v14.2C227.2,109.9,227.7,110.7,228.7,111z M220.8,100.4
			l-4.8,1.1c-1.4,0.3-2.4,0.8-3.1,1.4c-0.6,0.6-1,1.4-1,2.3c0,1.8,1.2,2.7,3.6,2.7c3.4,0,5.2-1.9,5.3-5.6V100.4z M233.2,87.3h6.6
			v4.8c0.8-3.6,3.2-5.4,7.1-5.4c0.6,0,1,0,1.3,0v6.5c-0.8-0.2-1.6-0.2-2.5-0.2c-2.2,0-3.7,0.4-4.5,1.2c-1,0.9-1.4,2.5-1.4,4.8v13.7
			h-6.6L233.2,87.3L233.2,87.3z M258.2,87.3v25.4h-6.6V87.3H258.2z M254.9,78.5c0.9,0,1.6,0.3,2.2,0.9s0.9,1.3,0.9,2.2
			s-0.3,1.6-0.9,2.2s-1.3,0.9-2.2,0.9c-0.9,0-1.6-0.3-2.2-0.9s-0.9-1.3-0.9-2.2s0.3-1.6,0.9-2.2S254,78.5,254.9,78.5z"/>
	</g>
	
		<linearGradient id="SVGID_13_" gradientUnits="userSpaceOnUse" x1="345.0905" y1="-104.5958" x2="358.2782" y2="-88.0444" gradientTransform="matrix(1 0 0 -1 -246 -4)">
		<stop  offset="0" style="stop-color:#455EA8"/>
		<stop  offset="0.469" style="stop-color:#C78ABC"/>
		<stop  offset="1" style="stop-color:#FABD6B"/>
	</linearGradient>
	<rect x="102" y="77" class="st12" width="3" height="36"/>
</g>
</svg>
