<?xml version="1.0" encoding="utf-8"?>
<!-- Generator: Adobe Illustrator 25.0.0, SVG Export Plug-In . SVG Version: 6.00 Build 0)  -->
<svg version="1.1" id="Layer_1" xmlns="http://www.w3.org/2000/svg" xmlns:xlink="http://www.w3.org/1999/xlink" x="0px" y="0px"
	 viewBox="0 0 200 80" style="enable-background:new 0 0 200 80;" xml:space="preserve">
<style type="text/css">
	.st0{fill:url(#SVGID_1_);}
	.st1{fill:url(#SVGID_2_);}
	.st2{fill:url(#SVGID_3_);}
	.st3{fill:url(#SVGID_4_);}
	.st4{fill:url(#SVGID_5_);}
	.st5{fill:url(#SVGID_6_);}
	.st6{fill:url(#SVGID_7_);}
	.st7{fill:url(#SVGID_8_);}
	.st8{fill:url(#SVGID_9_);}
	.st9{fill:url(#SVGID_10_);}
	.st10{fill:url(#SVGID_11_);}
	.st11{fill:url(#SVGID_12_);}
	.st12{fill:url(#SVGID_13_);}
</style>
<linearGradient id="SVGID_1_" gradientUnits="userSpaceOnUse" x1="357.0349" y1="-98.3126" x2="364.5652" y2="-111.3699" gradientTransform="matrix(1 0 0 -1 -246 -124)">
	<stop  offset="0" style="stop-color:#455EA8"/>
	<stop  offset="0.469" style="stop-color:#C78ABC"/>
	<stop  offset="1" style="stop-color:#FABD6B"/>
</linearGradient>
<path class="st0" d="M151,35.6C151,35.6,151.1,35.6,151,35.6C151.1,35.6,151.1,35.6,151,35.6c0,0.3,0,0.4,0,0.6c0,0.1,0,0.1,0,0.2
	c0,0.5,0,1,0.1,1.6c0,0.1,0,0.1,0,0.1c0.1,1,0.4,2.1,0.9,3c0,0.1,0,0.1,0.1,0.1c0.3,0.7,0.7,1.3,1.2,1.9l0.1,0.1
	c0.1,0.2,0.3,0.4,0.4,0.5c0.1,0.1,0.1,0.1,0.1,0.1c0.1,0.2,0.3,0.3,0.4,0.4c0.1,0.1,0.1,0.1,0.1,0.1c0.1,0.1,0.2,0.3,0.3,0.4
	l0.1,0.1c0.1,0.1,0.1,0.1,0.1,0.1c0.1,0.1,0.1,0.1,0.2,0.2c0.1,0.1,0.1,0.1,0.1,0.1l0.1,0.1c0.1,0.1,0.2,0.3,0.3,0.3
	c0.1,0.1,0.1,0.2,0.3,0.3c0.1,0.1,0.1,0.2,0.3,0.3c0,0,0,0,0.1,0.1v0.1h0.1c0.1,0.1,0.1,0.1,0.1,0.1v0.1h0.1v0.1h0.1v0.1h0.1v0.1
	c0,0,0,0,0.1,0c0.1,0.1,0.1,0.1,0.1,0.1h0.1c0.1,0.1,0.1,0.1,0.1,0.1v0.1h0.1c0.1,0.1,0.1,0.1,0.1,0.1c0.1,0.1,0.1,0.2,0.2,0.3
	c0.9,1,1.6,2.3,1.6,3.7c0,0.3-0.1,0.4-0.1,0.6v0.1c-0.1,0.4-0.2,0.7-0.4,1c-0.1,0.1-0.1,0.1-0.1,0.2c-0.1,0.1-0.1,0.3-0.3,0.4H158
	c0,0,0,0,0,0.1c-0.1,0.1-0.1,0.2-0.2,0.3l-0.1,0.1c-0.1,0.1-0.1,0.1-0.1,0.2c0,0,0,0.1-0.1,0.1c-0.3,0.3-0.6,0.5-1,0.7
	c0,0-0.1,0-0.1,0.1c-0.7,0.4-1.5,0.6-2.4,0.4H154c-0.6-0.1-1-0.4-1.4-0.9l-0.1-0.1c-0.3-0.4-0.6-0.8-0.9-1.3c0,0,0,0,0-0.1
	c-0.5-0.9-0.8-1.9-1-2.9v-0.1c-0.1-0.4-0.1-0.8-0.2-1.1c0-0.1,0-0.2-0.1-0.3c-0.1-0.2-0.1-0.4-0.1-0.6c0-0.1,0-0.2-0.1-0.3
	c-0.1-0.3-0.1-0.7-0.1-1c0,0,0,0,0-0.1c-0.1-0.5-0.1-1.1-0.1-1.6v-0.1c0-0.4,0-0.8,0-1.3c0-0.1,0-0.1,0-0.2c0-0.8,0-1.7,0.1-2.5
	v-0.1c0.1-0.8,0.1-1.5,0.3-2.2c0-0.1,0-0.2,0.1-0.3C150.7,36,150.7,36,151,35.6z"/>
<linearGradient id="SVGID_2_" gradientUnits="userSpaceOnUse" x1="353.1294" y1="-97.3521" x2="360.9452" y2="-110.9043" gradientTransform="matrix(1 0 0 -1 -246 -124)">
	<stop  offset="0" style="stop-color:#455EA8"/>
	<stop  offset="0.469" style="stop-color:#C78ABC"/>
	<stop  offset="1" style="stop-color:#FABD6B"/>
</linearGradient>
<path class="st1" d="M137,27.6c0.1,0.1,0.1,0.1,0.1,0.1s0.1,0.1,0.1,0.1c0.2,0.2,0.4,0.3,0.6,0.5c0.1,0.1,0.1,0.1,0.1,0.1v0.1
	c0,0,0,0,0.1,0c0.1,0.1,0.1,0.1,0.1,0.1c0.1,0.1,0.1,0.1,0.2,0.1v0.1c0,0,0,0,0.1,0c0.1,0.1,0.1,0.1,0.1,0.1c0,0,0,0.1,0.1,0.1
	c0,0,0,0.1,0.1,0.1c0,0,0,0.1,0.1,0.1c0.1,0.1,0.1,0.1,0.1,0.2c0.1,0.1,0.1,0.1,0.1,0.2c0,0.1,0.1,0.1,0.1,0.1
	c0.1,0.1,0.1,0.1,0.2,0.1v0.1h0.1c0.1,0.1,0.1,0.1,0.1,0.1c0.1,0.1,0.1,0.1,0.2,0.2v0.1h0.1c0.1,0.1,0.1,0.1,0.1,0.1v0.1h0.1v0.1
	h0.1v0.1h0.1v0.1c0,0,0,0,0.1,0c0.1,0.1,0.1,0.1,0.2,0.2c0.1,0.1,0.1,0.1,0.1,0.1l0.1,0.1c0.1,0.1,0.1,0.1,0.1,0.1l0.1,0.1
	c0.1,0.1,0.1,0.1,0.1,0.1v0.1h0.1v0.1c0,0,0,0,0.1,0c0.1,0.1,0.1,0.1,0.1,0.1c0.1,0.1,0.1,0.2,0.3,0.3c0.1,0.1,0.1,0.1,0.2,0.2
	c0.2,0.2,0.3,0.4,0.6,0.5c0,0,0,0,0.1,0.1v0.1c0,0,0,0,0.1,0c0.1,0.1,0.1,0.1,0.2,0.1c0.1,0.1,0.3,0.2,0.4,0.3c0,0,0,0,0.1,0.1v0.1
	h0.1c0.1,0.1,0.1,0.1,0.3,0.2c0.1,0.1,0.3,0.2,0.4,0.3c0.1,0.1,0.1,0.1,0.2,0.1c0.3,0.2,0.6,0.4,0.9,0.6c0.1,0,0.1,0.1,0.1,0.1
	c0.3,0.1,0.5,0.3,0.8,0.4c0.1,0,0.1,0,0.1,0.1c0.1,0.1,0.3,0.1,0.5,0.2c0.1,0,0.1,0.1,0.2,0.1c0.1,0.1,0.3,0.1,0.5,0.1h0.1
	c0.3,0.1,0.7,0.2,1,0.3c0.1,0,0.1,0,0.1,0c0.4,0.1,0.9,0.1,1.4,0.1c0.1,0,0.1,0,0.1,0c0.1,0,0.3,0,0.3,0c-0.1,0.1-0.1,0.1-0.1,0.1
	c-0.1,0-0.1,0-0.1,0.1h-0.1c-0.1,0-0.1,0.1-0.2,0.1c0,0,0,0-0.1,0c-0.6,0.2-1.2,0.3-1.8,0.3h-0.1c-0.3,0.1-0.8,0.1-1.1,0.1h-0.1
	c-2.4,0.1-2.4,0.1-3.1-0.1c-0.1,0-0.1,0-0.1,0c-0.6-0.1-1.2-0.1-1.8-0.3h-0.1c-0.2-0.1-0.3-0.1-0.6-0.1c-0.1,0-0.2-0.1-0.3-0.1
	c-0.5-0.1-1-0.3-1.5-0.4c-0.1,0-0.1-0.1-0.2-0.1c-0.3-0.1-0.7-0.2-1-0.3c-0.1-0.1-0.2-0.1-0.3-0.1c-0.3-0.1-0.5-0.2-0.8-0.3
	c-0.1,0-0.1-0.1-0.2-0.1c-0.8-0.4-1.7-0.9-2.4-1.6l-0.1-0.1c-0.3-0.3-0.6-0.6-0.8-0.9c0,0,0,0,0-0.1c-0.4-0.7-0.5-1.6-0.3-2.5v-0.1
	v-0.1c0.1-0.3,0.2-0.6,0.4-0.8l0.1-0.1c0.1-0.1,0.1-0.2,0.2-0.3l0.1-0.1c0,0,0-0.1,0.1-0.1h0.1v-0.1c0-0.1,0-0.1,0.1-0.1
	c0-0.1,0-0.1,0-0.1c0.1-0.1,0.1-0.1,0.1-0.1c0,0,0,0,0.1-0.1C134.9,26.4,136.1,26.9,137,27.6z"/>
<linearGradient id="SVGID_3_" gradientUnits="userSpaceOnUse" x1="365.1265" y1="-86.7254" x2="373.2748" y2="-100.8542" gradientTransform="matrix(1 0 0 -1 -246 -124)">
	<stop  offset="0" style="stop-color:#455EA8"/>
	<stop  offset="0.469" style="stop-color:#C78ABC"/>
	<stop  offset="1" style="stop-color:#FABD6B"/>
</linearGradient>
<path class="st2" d="M165.4,31c0.5,0,1,0.1,1.4,0.4c0.1,0.1,0.2,0.3,0.3,0.4c0,0,0,0,0,0.1c0.1,0.1,0.1,0.3,0.2,0.4c0,0,0,0,0,0.1
	c0.1,0.3,0.1,0.6,0.1,0.9v0.1c0,0.3,0,0.6-0.1,0.9c0,0.1,0,0.1,0,0.1c-0.1,0.6-0.6,1.3-1.1,1.7h-0.1v0.1c-0.1,0.1-0.1,0.1-0.2,0.1
	c0,0-0.1,0-0.1,0.1c-0.1,0-0.1,0.1-0.1,0.1c-0.1,0-0.1,0.1-0.1,0.1c-0.6,0.4-1.3,0.6-2,0.8c-0.1,0-0.1,0-0.1,0.1
	c-0.2,0.1-0.4,0.1-0.7,0.1c-0.1,0-0.1,0-0.1,0c-0.7,0.1-1.5,0.1-2.2,0.1c-0.1,0-0.1,0-0.2,0c-0.6,0-1.3,0-1.9-0.1h-0.1
	c-1.2-0.1-2.4-0.3-3.5-0.8c-0.1,0-0.1-0.1-0.2-0.1c-0.5-0.2-0.9-0.4-1.3-0.8c0.1-0.1,0.1-0.1,0.1-0.1h0.1c1.4,0.3,3,0.1,4.3-0.6
	c0.1-0.1,0.1-0.1,0.3-0.1c0.2-0.1,0.4-0.2,0.6-0.3c0.1-0.1,0.2-0.1,0.3-0.1c0.2-0.1,0.3-0.2,0.6-0.3c0,0,0.1,0,0.1-0.1
	c0.3-0.2,0.6-0.4,0.8-0.6c0.1-0.1,0.1-0.1,0.2-0.1c0.1-0.1,0.3-0.2,0.4-0.3c0.2-0.1,0.3-0.3,0.6-0.4l0.1-0.1
	c0.3-0.2,0.6-0.4,0.8-0.6c0.1-0.1,0.1-0.1,0.1-0.1c0.2-0.1,0.4-0.3,0.6-0.4l0.1-0.1C164.1,31.3,164.7,31,165.4,31z"/>
<linearGradient id="SVGID_4_" gradientUnits="userSpaceOnUse" x1="382.6565" y1="-163.1845" x2="396.0577" y2="-156.4483" gradientTransform="matrix(1 0 0 -1 -246 -124)">
	<stop  offset="0" style="stop-color:#455EA8"/>
	<stop  offset="0.4046" style="stop-color:#C78ABC"/>
	<stop  offset="1" style="stop-color:#FABD6B"/>
</linearGradient>
<path class="st3" d="M150.9,28.8c0.8,0,1.4,0.3,2,0.8c0.1,0.1,0.1,0.1,0.1,0.3h0.1c0.1,0.1,0.1,0.1,0.1,0.2c0,0,0,0.1,0.1,0.1
	c0.4,0.7,0.6,1.4,0.6,2.2c0,0.1,0,0.1,0,0.1c0,0.4-0.1,0.8-0.3,1.2v0.1c-0.1,0.2-0.2,0.3-0.3,0.4c0,0,0,0.1-0.1,0.1c0,0,0,0-0.1,0.1
	H153v0.1H153v0.1h-0.1v0.1c-0.1,0.1-0.1,0.1-0.2,0.1c0,0-0.1,0-0.1,0.1c-0.6,0.4-1.1,0.4-1.7,0.3c-0.1,0-0.2-0.1-0.3-0.1
	c0,0,0,0-0.1,0c-0.3-0.1-0.5-0.3-0.7-0.4c0,0-0.1,0-0.1-0.1c0,0,0,0-0.1-0.1v-0.1h-0.1v-0.1h-0.1c-0.1-0.1-0.1-0.1-0.1-0.2
	c0,0,0-0.1-0.1-0.1c-0.6-0.8-0.8-1.6-0.7-2.6c0-0.1,0-0.2,0.1-0.3c0-0.1,0-0.1,0-0.1c0.1-0.4,0.3-1,0.6-1.3h0.1v-0.1
	c0.2-0.3,0.7-0.6,1-0.6C150.7,28.8,150.7,28.8,150.9,28.8z"/>
<linearGradient id="SVGID_5_" gradientUnits="userSpaceOnUse" x1="383.9355" y1="-165.9484" x2="397.5011" y2="-159.1295" gradientTransform="matrix(1 0 0 -1 -246 -124)">
	<stop  offset="0" style="stop-color:#455EA8"/>
	<stop  offset="0.4046" style="stop-color:#C78ABC"/>
	<stop  offset="1" style="stop-color:#FABD6B"/>
</linearGradient>
<path class="st4" d="M157,31.7c0.3,0.3,0.6,0.5,0.7,0.9c0.1,0.3,0,0.6-0.1,0.8c-0.1,0.2-0.3,0.3-0.6,0.4c-0.4,0.1-0.7-0.1-1-0.3
	v-0.1h-0.1c-0.2-0.1-0.4-0.4-0.5-0.7c-0.1-0.3-0.1-0.6,0.1-0.8c0.1-0.1,0.1-0.1,0.1-0.2h0.1v-0.1C156,31.3,156.6,31.4,157,31.7z"/>
<linearGradient id="SVGID_6_" gradientUnits="userSpaceOnUse" x1="384.8644" y1="-167.1552" x2="398.2265" y2="-160.4386" gradientTransform="matrix(1 0 0 -1 -246 -124)">
	<stop  offset="0" style="stop-color:#455EA8"/>
	<stop  offset="0.4046" style="stop-color:#C78ABC"/>
	<stop  offset="1" style="stop-color:#FABD6B"/>
</linearGradient>
<path class="st5" d="M148.4,37.3c0.3,0.2,0.6,0.4,0.7,0.8c0.1,0.4,0.1,0.8-0.1,1.1c-0.1,0.2-0.3,0.4-0.5,0.4c-0.3,0-0.5,0-0.7-0.2
	v-0.1c0,0,0,0-0.1,0c-0.3-0.1-0.3-0.5-0.5-0.8c-0.1-0.3-0.1-0.6,0.1-0.9v-0.1C147.6,37.3,148.1,37.2,148.4,37.3z"/>
<linearGradient id="SVGID_7_" gradientUnits="userSpaceOnUse" x1="385.3325" y1="-168.0454" x2="398.7482" y2="-161.3019" gradientTransform="matrix(1 0 0 -1 -246 -124)">
	<stop  offset="0" style="stop-color:#455EA8"/>
	<stop  offset="0.4046" style="stop-color:#C78ABC"/>
	<stop  offset="1" style="stop-color:#FABD6B"/>
</linearGradient>
<path class="st6" d="M153.2,36.3c0.3,0.2,0.4,0.5,0.5,0.8c0,0.3-0.1,0.6-0.3,0.9c-0.1,0.2-0.3,0.3-0.6,0.4c-0.2,0-0.3,0-0.6-0.1
	c-0.1,0-0.1,0-0.1-0.1c-0.2-0.2-0.4-0.4-0.4-0.8c0-0.3,0-0.6,0.2-0.9c0-0.1,0-0.1,0.1-0.1h0.1v-0.1h0.1v-0.1
	C152.5,36.2,152.9,36.1,153.2,36.3z"/>
<linearGradient id="SVGID_8_" gradientUnits="userSpaceOnUse" x1="381.6487" y1="-161.4365" x2="395.0642" y2="-154.6931" gradientTransform="matrix(1 0 0 -1 -246 -124)">
	<stop  offset="0" style="stop-color:#455EA8"/>
	<stop  offset="0.4046" style="stop-color:#C78ABC"/>
	<stop  offset="1" style="stop-color:#FABD6B"/>
</linearGradient>
<path class="st7" d="M147.9,30.6c0.1,0.1,0.1,0.1,0.1,0.1v0.1h0.1c0,0.1,0.1,0.1,0.1,0.1s0,0.1,0.1,0.1c0.1,0.3,0.1,0.6,0.1,0.9
	c-0.1,0.1-0.1,0.3-0.2,0.3H148v0.1c-0.1,0.1-0.2,0.2-0.3,0.3c-0.3,0.1-0.5,0.1-0.7-0.1c-0.2-0.1-0.3-0.4-0.4-0.6
	c-0.1-0.3-0.1-0.6,0.1-0.8c0,0,0-0.1,0.1-0.1C146.9,30.5,147.4,30.3,147.9,30.6z"/>
<linearGradient id="SVGID_9_" gradientUnits="userSpaceOnUse" x1="386.8017" y1="-170.5885" x2="400.1746" y2="-163.8665" gradientTransform="matrix(1 0 0 -1 -246 -124)">
	<stop  offset="0" style="stop-color:#455EA8"/>
	<stop  offset="0.4046" style="stop-color:#C78ABC"/>
	<stop  offset="1" style="stop-color:#FABD6B"/>
</linearGradient>
<path class="st8" d="M154,39.4c0.1,0.1,0.1,0.1,0.1,0.1c0.1,0.1,0.1,0.1,0.1,0.1c0.1,0.2,0.1,0.3,0.1,0.6c0,0.2-0.1,0.4-0.3,0.5
	c-0.1,0.1-0.2,0.1-0.3,0.1h-0.1c-0.1,0-0.3-0.1-0.4-0.2c-0.1-0.2-0.1-0.4-0.1-0.7c0.1-0.2,0.2-0.3,0.3-0.4
	C153.6,39.4,153.8,39.3,154,39.4z"/>
<linearGradient id="SVGID_10_" gradientUnits="userSpaceOnUse" x1="382.6274" y1="-162.4147" x2="396.0555" y2="-155.6649" gradientTransform="matrix(1 0 0 -1 -246 -124)">
	<stop  offset="0" style="stop-color:#455EA8"/>
	<stop  offset="0.4046" style="stop-color:#C78ABC"/>
	<stop  offset="1" style="stop-color:#FABD6B"/>
</linearGradient>
<path class="st9" d="M146.7,33c0.1,0.1,0.2,0.2,0.2,0.4s0,0.3-0.1,0.4c0,0,0,0-0.1,0.1h-0.1v0.1c-0.1,0.1-0.3,0.1-0.4,0.1
	c-0.1-0.1-0.2-0.1-0.3-0.3v-0.1c0-0.2,0-0.3,0.1-0.4C146.2,33,146.5,32.9,146.7,33z"/>
<linearGradient id="SVGID_11_" gradientUnits="userSpaceOnUse" x1="384.1169" y1="-166.1004" x2="397.6363" y2="-159.3047" gradientTransform="matrix(1 0 0 -1 -246 -124)">
	<stop  offset="0" style="stop-color:#455EA8"/>
	<stop  offset="0.4046" style="stop-color:#C78ABC"/>
	<stop  offset="1" style="stop-color:#FABD6B"/>
</linearGradient>
<path class="st10" d="M154.4,33.6c0.1,0.1,0.2,0.3,0.3,0.4c0,0.2-0.1,0.3-0.2,0.4c-0.1,0.1-0.2,0.1-0.3,0.1s-0.3-0.1-0.3-0.2
	c-0.1-0.2-0.1-0.4,0-0.6C153.9,33.6,154.1,33.5,154.4,33.6z"/>
<linearGradient id="SVGID_12_" gradientUnits="userSpaceOnUse" x1="368.6626" y1="-168.0124" x2="377.9225" y2="-156.3907" gradientTransform="matrix(1 0 0 -1 -246 -124)">
	<stop  offset="0" style="stop-color:#455EA8"/>
	<stop  offset="0.469" style="stop-color:#C78ABC"/>
	<stop  offset="1" style="stop-color:#FABD6B"/>
</linearGradient>
<rect x="125.2" y="27.1" class="st11" width="1.2" height="26"/>
<g class="st12">
<linearGradient id="SVGID_13_" x1="43.8358" y1="13.0301" x2="159.245" y2="13.0301" gradientUnits="userSpaceOnUse">
<stop stop-color="#4562FF"/>
<stop offset="0.469" stop-color="#E287DF"/>
<stop offset="1" stop-color="#FFBE68"/>
</linearGradient>
	<path d="M66.4,39.8v2.7h-5.5v-7.6h-1.4c-1.1,0-1.9,0.7-1.9,1.8v5c0,3.4-2.8,6-6.5,6H51c-3.8,0-6.5-2.6-6.5-6v-3.9h2.9v3.9
		c0,2,1.5,3.3,3.6,3.3h0.1c2.1,0,3.6-1.4,3.6-3.3v-5c0-2.5,2.1-4.4,4.8-4.4h4.3v7.6H66.4z M50.1,50.2c0,0.9-0.8,1.6-1.7,1.6
		c-0.9,0-1.7-0.7-1.7-1.6c0-0.8,0.8-1.6,1.7-1.6C49.3,48.6,50.1,49.4,50.1,50.2z M54.7,50.2c0,0.9-0.8,1.6-1.7,1.6
		c-0.9,0-1.7-0.7-1.7-1.6c0-0.8,0.8-1.6,1.7-1.6C54,48.6,54.7,49.4,54.7,50.2z"/>
	<path d="M77.6,39.8v2.7h-3.4c-1,0-2-0.5-2.7-1.1c-0.7,0.7-1.7,1.1-3.1,1.1h-2.2l-1.3-0.4v-1.8l1.3-0.4h2.2c1.3,0,1.6-0.7,1.6-1.6
		v-2.5l0-2.7h2.9v4.1c0,0.2,0,0.4,0,0.6v0.5c0,0.9,0.3,1.6,1.6,1.6H77.6z M67.6,30c0-0.8,0.8-1.6,1.7-1.6c0.9,0,1.7,0.7,1.7,1.6
		c0,0.9-0.8,1.6-1.7,1.6C68.4,31.6,67.6,30.9,67.6,30z M72.3,30c0-0.8,0.8-1.6,1.7-1.6c0.9,0,1.7,0.7,1.7,1.6c0,0.9-0.8,1.6-1.7,1.6
		C73,31.6,72.3,30.9,72.3,30z"/>
	<path d="M94.4,32.4v6.1c0,2.2-2,4-4.4,4c-1.3,0-2.3-0.4-3-1c-0.9,0.7-1.9,1.1-3,1.1c-1.1,0-2-0.4-2.9-1.1c-0.7,0.6-1.7,1-2.9,1
		h-0.9l-1.3-0.4v-1.8l1.3-0.4h1c0.9,0,1.4-0.5,1.4-1.3v-4h2.9v4c0,0.8,0.5,1.3,1.5,1.3c0.9,0,1.5-0.5,1.5-1.3v-4h2.9v4
		c0,0.8,0.6,1.3,1.5,1.3c0.8,0,1.4-0.6,1.4-1.3v-6.1H94.4z"/>
	<path d="M97.7,42.5V28.6h2.9v13.9H97.7z"/>
	<path d="M101.7,44.4h1.1c1.1,0,1.9-0.7,1.9-1.8v-9.8h2.9v9.8c0,2.5-2.1,4.5-4.9,4.5h-1.1V44.4z"/>
	<path d="M110.1,39.8h4.1c1.1,0,2-0.8,2-1.8v-1.1c0-1.1-1-2-2.2-2h-2.1v-2.7h2.1c2.8,0,5.1,2.1,5.1,4.6v1.6c0,2.2-2,4-4.4,4h-4.6
		V39.8z"/>
</g>
</svg>
