<svg width="140" height="36" viewBox="0 0 140 36" fill="none" xmlns="http://www.w3.org/2000/svg">
<path d="M22.4754 28.088H9.61138L7.30738 35H0.107375L12.2994 0.631999H20.1234L32.0274 35H24.7314L22.4754 28.088ZM20.5554 22.184L16.0914 8.744L11.5794 22.184H20.5554ZM57.0346 17.048H50.3146C50.2826 16.024 49.9146 15.304 49.2106 14.888C48.5066 14.44 47.2906 14.216 45.5626 14.216C43.0346 14.216 41.7706 14.952 41.7706 16.424C41.7706 17.288 42.5386 17.928 44.0746 18.344L52.4266 20.696C55.7546 21.624 57.4186 23.736 57.4186 27.032C57.4186 29.624 56.4106 31.72 54.3946 33.32C52.5066 34.792 49.7866 35.528 46.2346 35.528C41.8826 35.528 38.7626 34.888 36.8746 33.608C35.0186 32.392 34.0266 30.424 33.8986 27.704H40.4746C40.6666 28.76 41.1146 29.464 41.8186 29.816C42.5546 30.168 43.8986 30.344 45.8506 30.344C49.1466 30.344 50.7946 29.56 50.7946 27.992C50.7946 27.064 50.0586 26.376 48.5866 25.928L40.7146 23.528C38.6986 22.92 37.3226 22.216 36.5866 21.416C35.6266 20.424 35.1466 19.08 35.1466 17.384C35.1466 14.6 36.2026 12.456 38.3146 10.952C40.1706 9.672 42.6026 9.032 45.6106 9.032C49.2586 9.032 52.1386 9.848 54.2506 11.48C56.0746 12.92 57.0026 14.776 57.0346 17.048ZM68.6938 19.448L76.9978 9.56H84.5338L75.8458 19.16L85.1098 35H77.3818L71.2858 23.768L68.6938 26.648V35H62.0698V0.631999H68.6938V19.448ZM110.204 33.32V35H103.004C102.524 34.392 102.268 33.528 102.236 32.408C100.476 34.488 97.9164 35.528 94.5564 35.528C92.0924 35.528 90.1084 34.776 88.6044 33.272C87.3884 32.056 86.7804 30.376 86.7804 28.232C86.7804 25.032 88.0604 22.76 90.6204 21.416C91.7084 20.84 93.8684 20.264 97.1004 19.688L102.284 18.728L102.236 16.904C102.204 15.208 100.924 14.36 98.3964 14.36C96.7644 14.36 95.6124 14.616 94.9404 15.128C94.3004 15.608 93.9004 16.504 93.7404 17.816H87.4044C87.7884 11.96 91.4044 9.032 98.2524 9.032C102.028 9.032 104.748 9.704 106.412 11.048C107.916 12.328 108.668 14.264 108.668 16.856V31.064C108.668 32.216 109.18 32.968 110.204 33.32ZM102.284 22.712L97.4364 23.816C96.0604 24.136 95.0364 24.6 94.3644 25.208C93.7244 25.816 93.4044 26.568 93.4044 27.464C93.4044 29.288 94.5884 30.2 96.9564 30.2C100.38 30.2 102.14 28.328 102.236 24.584L102.284 22.712ZM114.664 9.56H121.288V14.408C122.12 10.824 124.488 9.032 128.392 9.032C129 9.032 129.432 9.032 129.688 9.032L129.736 15.56C128.936 15.4 128.104 15.32 127.24 15.32C125.064 15.32 123.56 15.72 122.728 16.52C121.768 17.416 121.288 19.032 121.288 21.368V35H114.664V9.56ZM139.712 9.56V35H133.088V9.56H139.712ZM136.352 0.823999C137.216 0.823999 137.936 1.128 138.512 1.736C139.12 2.344 139.424 3.08 139.424 3.944C139.424 4.808 139.12 5.544 138.512 6.152C137.936 6.728 137.216 7.016 136.352 7.016C135.488 7.016 134.752 6.728 134.144 6.152C133.536 5.544 133.232 4.808 133.232 3.944C133.232 3.08 133.536 2.344 134.144 1.736C134.752 1.128 135.488 0.823999 136.352 0.823999Z" fill="url(#paint3_linear_4733_2085)"/>
<linearGradient id="paint3_linear_4733_2085" x1="43.8358" y1="13.0301" x2="159.245" y2="13.0301" gradientUnits="userSpaceOnUse">
<stop stop-color="#4562FF"/>
<stop offset="0.469" stop-color="#E287DF"/>
<stop offset="1" stop-color="#FFBE68"/>
</linearGradient>
</svg>
